<?xml version="1.0" encoding="UTF-8" standalone="no"?>
<!-- Created with Inkscape (http://www.inkscape.org/) -->

<svg
   width="6.8511157mm"
   height="8.4558306mm"
   viewBox="0 0 6.8511157 8.4558306"
   version="1.1"
   id="svg1"
   xml:space="preserve"
   xmlns="http://www.w3.org/2000/svg"
   xmlns:svg="http://www.w3.org/2000/svg"><defs
     id="defs1" /><g
     id="layer1"
     transform="translate(-179.92983,-114.04198)"><g
       id="g18"
       transform="matrix(0.26458333,0,0,0.26458333,179.12292,114.03542)"><path
         class="st0"
         d="M 26,15 H 6 C 4.9,15 4,14.1 4,13 v 0 c 0,-1.1 0.9,-2 2,-2 h 20 c 1.1,0 2,0.9 2,2 v 0 c 0,1.1 -0.9,2 -2,2 z"
         id="path1"
         style="fill:#008080" /><polygon
         class="st0"
         points="6,15 26,15 24,31 8,31 "
         id="polygon1" /><line
         class="st0"
         x1="20"
         y1="15"
         x2="19"
         y2="31"
         id="line1" /><line
         class="st0"
         x1="13"
         y1="31"
         x2="12"
         y2="15"
         id="line2" /><path
         class="st0"
         d="M 25.8,11 C 25.9,10.7 26,10.3 26,10 26,8.6 25.1,7.5 23.8,7.1 23.9,6.8 24,6.4 24,6 24,4.3 22.7,3 21,3 20.2,3 19.5,3.3 19,3.8 18.9,2.2 17.6,1 16,1 14.4,1 13.1,2.2 13,3.8 12.5,3.3 11.8,3 11,3 9.3,3 8,4.3 8,6 8,6.4 8.1,6.8 8.2,7.1 6.9,7.5 6,8.6 6,10 c 0,0.4 0.1,0.7 0.2,1"
         id="path2" /></g><path
       style="fill:#ffffff;stroke-width:0.057382"
       d="m 685.88864,460.79168 c -0.0549,-0.31915 -1.69455,-13.5177 -1.69455,-13.64086 0,-0.11472 0.0289,-0.11647 1.92229,-0.11647 1.05727,0 1.9224,0.0194 1.92252,0.043 1.2e-4,0.0237 0.19369,3.12876 0.43014,6.90019 0.23646,3.77143 0.43002,6.88942 0.43015,6.92887 1.7e-4,0.0556 -0.33578,0.0717 -1.48911,0.0717 h -1.48933 z"
       id="path18"
       transform="scale(0.26458333)" /><path
       style="fill:#ffffff;stroke-width:0.057382"
       d="m 690.96494,460.93513 c -1.2e-4,-0.0237 -0.19369,-3.12875 -0.43014,-6.90018 -0.23646,-3.77143 -0.43002,-6.88943 -0.43015,-6.92888 -1.7e-4,-0.0564 0.61747,-0.0717 2.89757,-0.0717 1.59379,0 2.89769,0.0194 2.89757,0.043 -1.2e-4,0.0237 -0.19369,3.12876 -0.43014,6.90019 -0.23646,3.77143 -0.43002,6.88942 -0.43015,6.92887 -1.7e-4,0.056 -0.446,0.0717 -2.03728,0.0717 -1.12038,0 -2.03716,-0.0194 -2.03728,-0.043 z"
       id="path19"
       transform="scale(0.26458333)" /><path
       style="fill:#ffffff;stroke-width:0.057382"
       d="m 697.10503,460.88454 c 0,-0.15099 0.79647,-12.91711 0.83635,-13.40548 l 0.0363,-0.44471 h 1.91632 c 1.68169,0 1.91633,0.0107 1.91633,0.0878 0,0.0954 -1.64178,13.28833 -1.69752,13.64087 l -0.034,0.21518 h -1.48689 c -1.33675,0 -1.48689,-0.009 -1.48689,-0.0936 z"
       id="path20"
       transform="scale(0.26458333)" /><path
       style="fill:#ffffff;stroke-width:0.057382"
       d="m 682.60017,444.87329 c -0.74876,-0.36906 -0.742,-1.40469 0.0114,-1.74687 0.22497,-0.10217 0.62766,-0.10634 10.38688,-0.10755 l 10.15284,-10e-4 0.24724,0.11969 c 0.74462,0.36046 0.75341,1.34162 0.0154,1.71813 -0.21834,0.11139 -0.38183,0.11314 -10.42375,0.11186 -9.27471,-0.001 -10.21902,-0.01 -10.38999,-0.094 z"
       id="path21"
       transform="scale(0.26458333)" /><path
       style="fill:#ffffff;stroke-width:0.057382"
       d="m 684.05071,440.70798 c 0.11308,-0.70972 0.52174,-1.19474 1.31808,-1.56435 0.61661,-0.28619 0.77999,-0.46511 0.82177,-0.89989 0.016,-0.16668 -0.0145,-0.4607 -0.0741,-0.71385 -0.1309,-0.55583 -0.0907,-0.95999 0.14266,-1.43399 0.30789,-0.62542 0.86847,-0.99317 1.58727,-1.04128 0.53454,-0.0358 0.9418,0.0906 1.3374,0.41516 0.34814,0.28557 0.66931,0.39855 0.98256,0.34563 0.48586,-0.0821 0.81529,-0.47549 0.87393,-1.04364 0.0664,-0.64333 0.50264,-1.2469 1.12054,-1.55034 0.28233,-0.13865 0.39279,-0.1596 0.84143,-0.1596 0.44921,0 0.55894,0.0209 0.84295,0.16034 0.47132,0.23146 0.87335,0.69178 1.02064,1.16867 0.0639,0.20672 0.11609,0.44024 0.11609,0.51893 0,0.36997 0.34456,0.76889 0.76292,0.88327 0.343,0.0938 0.65644,-0.004 1.09887,-0.34324 0.43132,-0.33058 0.78854,-0.43526 1.34867,-0.39518 1.21406,0.0869 2.00593,1.24096 1.69644,2.47245 -0.22947,0.9131 -0.0843,1.23029 0.73871,1.61369 0.7813,0.36397 1.22064,0.8828 1.32713,1.56722 l 0.0379,0.24388 h -8.99037 -8.99037 z"
       id="path22"
       transform="scale(0.26458333)" /><path
       style="fill:#008080;stroke-width:0.057382"
       d="m 684.68183,462.90035 c -0.28148,-0.0995 -0.51863,-0.35331 -0.60073,-0.64292 -0.034,-0.11973 -0.48792,-3.63766 -1.00883,-7.81761 -0.5209,-4.17995 -0.95284,-7.60135 -0.95986,-7.60311 -0.007,-0.002 -0.21175,-0.10198 -0.45494,-0.22271 -0.99625,-0.49456 -1.61691,-1.51753 -1.60753,-2.64952 0.009,-1.09767 0.65997,-2.13981 1.62048,-2.59464 0.32668,-0.1547 0.33754,-0.16705 0.34227,-0.38929 0.008,-0.35857 0.14854,-1.05721 0.28708,-1.42329 0.26139,-0.69074 0.88326,-1.45299 1.50815,-1.84863 l 0.24271,-0.15367 0.003,-0.61118 c 0.005,-1.08721 0.36903,-1.95927 1.1449,-2.73965 1.06407,-1.07027 2.53982,-1.42073 4.07805,-0.96846 0.0982,0.0289 0.15675,-0.0271 0.34084,-0.32533 0.69777,-1.13047 2.05341,-1.88557 3.38522,-1.88557 1.33364,0 2.69714,0.76039 3.3804,1.88515 0.18542,0.30523 0.23942,0.35678 0.34218,0.32666 1.11467,-0.3267 2.07193,-0.25277 3.07594,0.23754 0.44723,0.2184 0.62595,0.34814 1.00567,0.73001 0.77002,0.77438 1.13618,1.66136 1.14353,2.7701 0.004,0.57041 0.008,0.58638 0.15702,0.67474 1.04011,0.61458 1.76826,1.84304 1.84867,3.1189 l 0.0264,0.41824 0.34597,0.17288 c 0.68312,0.34137 1.27622,1.03652 1.49859,1.75648 0.15526,0.50267 0.15585,1.25069 10e-4,1.7508 -0.23368,0.75658 -0.86649,1.48266 -1.56651,1.79741 -0.34303,0.15423 -0.38073,0.18827 -0.41053,0.37067 -0.018,0.11046 -0.44606,3.53186 -0.95115,7.60311 -0.50509,4.07125 -0.94651,7.50427 -0.98092,7.62894 -0.08,0.28974 -0.36611,0.57596 -0.6563,0.65652 -0.15988,0.0444 -2.60647,0.0623 -8.289,0.0608 -6.79851,-0.002 -8.09814,-0.0149 -8.2917,-0.0833 z m 4.27474,-1.96522 c -1.2e-4,-0.0552 -0.19369,-3.18613 -0.43014,-6.95756 -0.23646,-3.77143 -0.43002,-6.88943 -0.43015,-6.92888 -1.7e-4,-0.056 -0.43812,-0.0717 -1.99785,-0.0717 h -1.99764 l 0.87606,6.98626 c 0.48183,3.84244 0.87724,7.00562 0.87868,7.02929 10e-4,0.0237 0.69983,0.043 1.55195,0.043 1.43736,0 1.5493,-0.007 1.54909,-0.10042 z m 6.14032,0 c 1.2e-4,-0.0552 0.19368,-3.18613 0.43014,-6.95756 0.23645,-3.77143 0.43002,-6.88943 0.43014,-6.92888 1.8e-4,-0.0565 -0.62895,-0.0717 -2.95495,-0.0717 h -2.95517 l 2.2e-4,0.12911 c 1.2e-4,0.071 0.19369,3.21483 0.43014,6.98626 0.23646,3.77143 0.43002,6.87651 0.43015,6.90018 1.2e-4,0.0237 0.94272,0.043 2.09466,0.043 1.95637,0 2.09446,-0.007 2.09467,-0.10042 z m 5.07333,-0.11476 c 0.0767,-0.48503 1.69752,-13.56436 1.69752,-13.69825 v -0.14516 h -1.97968 c -1.08882,0 -1.97978,0.0194 -1.9799,0.043 -1.2e-4,0.0237 -0.19369,3.12875 -0.43014,6.90018 -0.23646,3.77144 -0.43002,6.91525 -0.43015,6.98626 l -2.2e-4,0.12911 h 1.54427 1.54427 z m 3.39986,-15.97576 c 0.59542,-0.39404 0.5834,-1.29786 -0.0228,-1.71322 l -0.20792,-0.14247 H 693.0022 682.66505 l -0.23071,0.15268 c -0.64641,0.42777 -0.58034,1.45724 0.11378,1.77311 0.23354,0.10628 0.51997,0.10889 10.51565,0.0959 l 10.27557,-0.0133 z m -1.55317,-4.07925 c -0.13083,-0.8476 -0.63293,-1.44083 -1.4692,-1.73589 -0.4193,-0.14793 -0.68556,-0.47096 -0.69806,-0.84687 -0.003,-0.10225 0.0395,-0.38936 0.0952,-0.63801 0.23757,-1.05892 -0.16197,-1.9623 -1.05253,-2.37982 -0.28283,-0.13261 -0.39713,-0.15195 -0.89791,-0.15195 -0.63605,0 -0.86337,0.0808 -1.31674,0.46809 -0.42339,0.36167 -0.89374,0.37645 -1.29284,0.0406 -0.23374,-0.19667 -0.27439,-0.28293 -0.3708,-0.78687 -0.17255,-0.90182 -0.63758,-1.44261 -1.4415,-1.67631 -1.04372,-0.30342 -2.18403,0.28021 -2.49132,1.2751 -0.0639,0.20671 -0.11609,0.43851 -0.11609,0.5151 0,0.36886 -0.32786,0.76305 -0.73647,0.88547 -0.29986,0.0898 -0.62032,-0.007 -0.96535,-0.29272 -0.42122,-0.34842 -0.8083,-0.4734 -1.37698,-0.44463 -1.07314,0.0543 -1.80696,0.75556 -1.89529,1.81115 -0.022,0.26327 -0.003,0.50069 0.0609,0.74878 0.17203,0.67101 0.10059,1.01817 -0.26544,1.28991 -0.10261,0.0762 -0.27515,0.16817 -0.38344,0.20444 -0.61436,0.20578 -1.14408,0.73022 -1.32315,1.30998 -0.0634,0.20541 -0.11535,0.43531 -0.11535,0.51089 v 0.13741 h 9.04499 9.045 z"
       id="path23"
       transform="scale(0.26458333)" /></g><style
     type="text/css"
     id="style1">
	.st0{fill:none;stroke:#000000;stroke-width:2;stroke-linecap:round;stroke-linejoin:round;stroke-miterlimit:10;}
</style><style
     type="text/css"
     id="style1-0">
	.st0{fill:none;stroke:#000000;stroke-width:2;stroke-linecap:round;stroke-linejoin:round;stroke-miterlimit:10;}
</style></svg>
